# xmcd CD database file
#
# Track frame offsets:
#	150
#	13943
#	42372
#	69297
#	90417
#	109772
#	124300
#	155653
#	179009
#	207636
#
# Disc length: 2992 seconds
#
# Revision: 0
# Processed by: cddbd v1.5.2PL0 Copyright (c) Steve Scherf et al.
# Submitted via: CDex 1.96
#
DISCID=8e0bae0a
DTITLE=Muddy Waters - Live in Philadelphia 1977
DYEAR=1977
DGENRE=Blues
TTITLE0=Hoochie Koochie Man
TTITLE1=Blow Wind Blow
TTITLE2=Walkin' Through The Park
TTITLE3=Got My Mojo Workin'
TTITLE4=Blues Had A Baby
TTITLE5=Trouble No No More
TTITLE6=Howlin' Wolf
TTITLE7=Mannish Boy
TTITLE8=Deep Down In Florida
TTITLE9=Oh Baby
EXTD=YEAR: 1977
EXTT0=
EXTT1=
EXTT2=
EXTT3=
EXTT4=
EXTT5=
EXTT6=
EXTT7=
EXTT8=
EXTT9=
PLAYORDER=
